<svg width="238" height="44" viewBox="0 0 238 44" fill="none" xmlns="http://www.w3.org/2000/svg">
<clipPath id="mask">
    <use href="#container"/>
</clipPath>
<rect id="container" x="10" y="12" width="220" height="20" rx="10" fill="#C4C4C4" stroke="white" stroke-width="2" stroke-location="outside"/>
<rect id="gauge" clip-path="url(#mask)" x="10" y="12" width="0" height="20" rx="10" fill="#F8BD33"/>
<text id="coin" x="55%" y="50%" fill="white" font-family="Josefin Sans" font-size="12" dominant-baseline="middle" text-anchor="middle">0</text>
<circle cx="22" cy="22" r="21.5" fill="#F8BD33" stroke="white"/>
<circle cx="22" cy="22" r="19.75" stroke="#BD6E05" stroke-width="0.5"/>
<path d="M16 22C19.1429 30 34.8571 30 38 22C34.8571 14 19.1429 14 16 22Z" fill="#BD6E05"/>
<path d="M8 28C8 26 12 22 12 22C12 22 8 18 8 16C12 16 16 18 16 22C16 26 12 28 8 28Z" fill="#BD6E05"/>
<circle cx="31" cy="21" r="1" fill="#F8BD33"/>
<defs>
<style>
@import url('https://fonts.googleapis.com/css2?family=Josefin+Sans');
</style>
</defs>
</svg>
