<svg width="238" height="44" viewBox="0 0 238 44" fill="none" xmlns="http://www.w3.org/2000/svg">
<clipPath id="mask">
    <use href="#container"/>
</clipPath>
<rect id="container" x="10" y="12" width="220" height="20" rx="10" fill="#C4C4C4" stroke="white" stroke-width="2" stroke-location="outside"/>
<rect id="gauge" clip-path="url(#mask)" x="10" y="12" width="220" height="20" rx="10" fill="#DD636E"/>
<text id="time" x="55%" y="50%" fill="white" font-family="Josefin Sans" font-size="12" dominant-baseline="middle" text-anchor="middle"></text>
<circle cx="22" cy="22" r="21.5" fill="#F8BD33" stroke="white"/>
<circle cx="22" cy="22" r="19.75" stroke="#BD6E05" stroke-width="0.5"/>
<path d="M16 22C19.1429 30 34.8571 30 38 22C34.8571 14 19.1429 14 16 22Z" fill="#BD6E05"/>
<path d="M8 28C8 26 12 22 12 22C12 22 8 18 8 16C12 16 16 18 16 22C16 26 12 28 8 28Z" fill="#BD6E05"/>
<circle cx="31" cy="21" r="1" fill="#F8BD33"/>
<g id="clock">
<path id="Vector_2" d="M22 44.001C34.1503 44.001 44 34.1512 44 22.001C44 9.85071 34.1503 0.000976562 22 0.000976562C9.84974 0.000976562 0 9.85071 0 22.001C0 34.1512 9.84974 44.001 22 44.001Z" fill="#DD636E"/>
<path id="Vector_3" d="M23.4124 43.9559C22.9455 43.9844 22.4742 44.0002 22.0001 44.0002C9.84907 44.0002 0 34.1497 0 22.0001C0 9.8505 9.84907 0 22.0001 0C22.4742 0 22.9455 0.0157497 23.4124 0.0442902C11.9239 0.778327 2.83325 10.3275 2.83325 22.0001C2.83325 33.6727 11.9239 43.222 23.4124 43.9559Z" fill="#CB5769"/>
<path id="Vector_4" d="M22.0001 38.8145C31.2864 38.8145 38.8145 31.2864 38.8145 22.0001C38.8145 12.7137 31.2864 5.18567 22.0001 5.18567C12.7137 5.18567 5.18567 12.7137 5.18567 22.0001C5.18567 31.2864 12.7137 38.8145 22.0001 38.8145Z" fill="#D3EFFB"/>
<path id="Vector_5" d="M24.938 38.5709C24.0069 38.7323 23.0486 38.815 22.0719 38.815C12.7855 38.815 5.2569 31.2865 5.2569 22.0001C5.2569 12.7136 12.7855 5.18518 22.0719 5.18518C23.0486 5.18518 24.0068 5.26803 24.938 5.42935C17.0182 6.7888 10.9905 13.6905 10.9905 22.0001C10.9905 30.3097 17.0182 37.2113 24.938 38.5709Z" fill="#9DC6FB"/>
<path id="Vector_6" d="M22 24.1422H14.1881C13.0051 24.1422 12.046 23.1831 12.046 22.0001C12.046 20.8171 13.005 19.858 14.1881 19.858H22C23.183 19.858 24.1421 20.8171 24.1421 22.0001C24.1421 23.1831 23.183 24.1422 22 24.1422Z" fill="#365E7D"/>
<path id="Vector_7" d="M22 24.142C20.817 24.142 19.8579 23.183 19.8579 22V16.5305C19.8579 15.3475 20.8169 14.3884 22 14.3884C23.1829 14.3884 24.142 15.3474 24.142 16.5305V22C24.1419 23.183 23.1829 24.142 22 24.142V24.142Z" fill="#2B4D66"/>
<path id="Vector_8" d="M21.9998 9.76642C21.5924 9.76642 21.2623 9.43624 21.2623 9.02895V5.61906C21.2623 5.21176 21.5925 4.88159 21.9998 4.88159C22.4071 4.88159 22.7373 5.21176 22.7373 5.61906V9.02885C22.7373 9.43615 22.4072 9.76642 21.9998 9.76642Z" fill="#365E7D"/>
<path id="Vector_9" d="M21.9999 39.1187C21.5925 39.1187 21.2624 38.7886 21.2624 38.3813V34.9715C21.2624 34.5642 21.5926 34.234 21.9999 34.234C22.4072 34.234 22.7373 34.5642 22.7373 34.9715V38.3813C22.7373 38.7886 22.4073 39.1187 21.9999 39.1187Z" fill="#365E7D"/>
<path id="Vector_10" d="M38.381 22.7375H34.9712C34.5638 22.7375 34.2337 22.4074 34.2337 22C34.2337 21.5927 34.5639 21.2626 34.9712 21.2626H38.381C38.7884 21.2626 39.1184 21.5927 39.1184 22C39.1184 22.4074 38.7883 22.7375 38.381 22.7375Z" fill="#365E7D"/>
<path id="Vector_11" d="M9.02858 22.7375H5.6187C5.2113 22.7375 4.88123 22.4074 4.88123 22C4.88123 21.5927 5.2114 21.2626 5.6187 21.2626H9.02848C9.43588 21.2626 9.76595 21.5927 9.76595 22C9.76595 22.4074 9.43588 22.7375 9.02858 22.7375V22.7375Z" fill="#365E7D"/>
<path id="Vector_12" d="M34.4439 15.5536C34.1891 15.5536 33.9411 15.4213 33.8046 15.1847C33.6009 14.8319 33.7218 14.3809 34.0745 14.1773L35.8176 13.171C36.1702 12.9673 36.6215 13.0881 36.825 13.4409C37.0287 13.7937 36.9077 14.2447 36.555 14.4483L34.812 15.4546C34.6959 15.5217 34.5691 15.5536 34.4439 15.5536Z" fill="#365E7D"/>
<path id="Vector_13" d="M7.81403 30.9284C7.55917 30.9284 7.31118 30.7961 7.17468 30.5595C6.97099 30.2067 7.09193 29.7557 7.44463 29.5521L9.1877 28.5457C9.54031 28.342 9.99161 28.4629 10.1951 28.8157C10.3988 29.1685 10.2779 29.6195 9.92518 29.8231L8.1821 30.8295C8.06603 30.8966 7.93917 30.9284 7.81403 30.9284V30.9284Z" fill="#365E7D"/>
<path id="Vector_14" d="M29.1835 10.2943C29.0583 10.2943 28.9316 10.2624 28.8154 10.1953C28.4627 9.99174 28.3418 9.54063 28.5455 9.18793L29.5517 7.44495C29.7552 7.09216 30.2062 6.97131 30.5592 7.17501C30.9119 7.37861 31.0328 7.82972 30.8291 8.18242L29.8228 9.9254C29.6862 10.1619 29.4383 10.2943 29.1835 10.2943V10.2943Z" fill="#365E7D"/>
<path id="Vector_15" d="M13.8087 36.9242C13.6835 36.9242 13.5568 36.8923 13.4406 36.8252C13.0879 36.6216 12.967 36.1705 13.1707 35.8178L14.1769 34.0747C14.3805 33.7219 14.8314 33.6011 15.1843 33.8048C15.537 34.0084 15.658 34.4595 15.4543 34.8122L14.448 36.5553C14.3115 36.7919 14.0635 36.9242 13.8087 36.9242V36.9242Z" fill="#365E7D"/>
<path id="Vector_16" d="M14.8163 10.2943C14.5614 10.2943 14.3134 10.162 14.1769 9.9254L13.1707 8.18242C12.967 7.82963 13.0879 7.37861 13.4406 7.17501C13.7931 6.97131 14.2445 7.09216 14.448 7.44495L15.4543 9.18793C15.658 9.54073 15.537 9.99174 15.1843 10.1953C15.0683 10.2624 14.9414 10.2943 14.8163 10.2943V10.2943Z" fill="#365E7D"/>
<path id="Vector_17" d="M30.1911 36.9242C29.9362 36.9242 29.6882 36.7919 29.5517 36.5553L28.5455 34.8122C28.3418 34.4594 28.4627 34.0084 28.8154 33.8048C29.1679 33.6011 29.6193 33.7219 29.8228 34.0747L30.8291 35.8178C31.0328 36.1706 30.9119 36.6216 30.5592 36.8252C30.4431 36.8923 30.3162 36.9242 30.1911 36.9242V36.9242Z" fill="#365E7D"/>
<path id="Vector_18" d="M9.55571 15.5535C9.43057 15.5535 9.30381 15.5216 9.18764 15.4545L7.44457 14.4482C7.09187 14.2446 6.97093 13.7935 7.17462 13.4408C7.37823 13.0881 7.82915 12.9671 8.18204 13.1709L9.92511 14.1772C10.2778 14.3808 10.3988 14.8319 10.1951 15.1846C10.0585 15.4212 9.81057 15.5535 9.55571 15.5535Z" fill="#365E7D"/>
<path id="Vector_19" d="M36.1856 30.9284C36.0605 30.9284 35.9337 30.8965 35.8176 30.8294L34.0745 29.823C33.7218 29.6194 33.6009 29.1683 33.8046 28.8156C34.0082 28.4628 34.4591 28.3419 34.812 28.5457L36.555 29.552C36.9077 29.7556 37.0287 30.2067 36.825 30.5594C36.6884 30.7961 36.4405 30.9284 36.1856 30.9284V30.9284Z" fill="#365E7D"/>
<path id="Vector_20" d="M22.0001 39.5521C12.3219 39.5521 4.44818 31.6783 4.44818 22.0002C4.44818 12.3221 12.3219 4.44824 22.0001 4.44824C31.6782 4.44824 39.5519 12.322 39.5519 22.0001C39.5519 31.6782 31.6782 39.5521 22.0001 39.5521ZM22.0001 5.92328C13.1353 5.92328 5.92313 13.1354 5.92313 22.0002C5.92313 30.8651 13.1353 38.077 22.0001 38.077C30.8648 38.077 38.077 30.865 38.077 22.0001C38.077 13.1353 30.8648 5.92328 22.0001 5.92328V5.92328Z" fill="#CB5769"/>
<path id="Vector_21" d="M43.5 22.001C43.5 33.8751 33.8741 43.501 22 43.501C10.1259 43.501 0.5 33.8751 0.5 22.001C0.5 10.1269 10.1259 0.500977 22 0.500977C33.8741 0.500977 43.5 10.1269 43.5 22.001Z" stroke="white"/>
</g>
<def>
<style>
@import url('https://fonts.googleapis.com/css2?family=Josefin+Sans');
</style>
</def>
</svg>
