<svg height="512" viewBox="0 0 64 64" width="512" xmlns="http://www.w3.org/2000/svg"><g id="flat"><path d="m21 26h28v18h-28z" fill="#f9bb4b"/><path d="m35 40-4 4h-28v7l4 1-.935 1.87a2.163 2.163 0 0 0 1.935 3.13h42a7.666 7.666 0 0 0 7-5l4-9v-3z" fill="#8b3123"/><path d="m3 48v3l4 1h50l1.778-4z" fill="#dc6c54"/><path d="m42 40h10v4h-10z" fill="#dc6c54"/><g fill="#fff69a"><path d="m38 40h4a0 0 0 0 1 0 0v4a0 0 0 0 1 0 0h-2a2 2 0 0 1 -2-2v-2a0 0 0 0 1 0 0z"/><path d="m54 40h2a0 0 0 0 1 0 0v4a0 0 0 0 1 0 0h-4a0 0 0 0 1 0 0v-2a2 2 0 0 1 2-2z" transform="matrix(-1 0 0 -1 108 84)"/><path d="m34 30h15v6h-15z"/><path d="m21 30h9v6h-9z"/></g><path d="m24 39h2v2h-2z" fill="#f4f4e6"/><path d="m28 39h2v2h-2z" fill="#f4f4e6"/><path d="m22 22h29a0 0 0 0 1 0 0v4a0 0 0 0 1 0 0h-32a0 0 0 0 1 0 0v-1a3 3 0 0 1 3-3z" fill="#8b3123"/><path d="m32 18h12v4h-12z" fill="#dc6c54"/><path d="m37 14h2v4h-2z" fill="#7fcac9"/><path d="m34 13h8v2h-8z" fill="#2d75bb"/><path d="m9 10h2v13h-2z" fill="#50b4f8"/><path d="m24 22-17-12 2-3 21 15z" fill="#2d75bb"/><path d="m17.8 37.4c-2.868-3.824-6.812-15.6-6.852-15.716a1 1 0 0 0 -1.9 0c-.036.116-3.979 11.89-6.848 15.716a1 1 0 0 0 .245 1.432 14.774 14.774 0 0 0 7.555 2.168 14.774 14.774 0 0 0 7.555-2.168 1 1 0 0 0 .245-1.432zm-10.823-4.727a8.5 8.5 0 0 0 2.023.559v2.033a10.157 10.157 0 0 1 -2.845-.8c.277-.581.552-1.181.822-1.792zm4.023-4.949c.383 1 .806 2.072 1.254 3.149a5.235 5.235 0 0 1 -1.254.384zm-2 3.489a6.591 6.591 0 0 1 -1.236-.382c.441-1.063.858-2.117 1.236-3.107zm2 2.054a7.158 7.158 0 0 0 2.041-.556c.267.6.538 1.2.812 1.767a8.23 8.23 0 0 1 -2.853.816zm-5.745 2.979a12.224 12.224 0 0 0 3.745 1.031v1.674a13.277 13.277 0 0 1 -4.558-1.3c.268-.422.54-.897.813-1.405zm5.745 2.706v-1.646a10.144 10.144 0 0 0 3.758-1.037c.269.5.537.967.8 1.389a13.158 13.158 0 0 1 -4.558 1.294z" fill="#7fcac9"/><path d="m52 36h2v4h-2z" fill="#7fcac9"/><path d="m56 36h2v4h-2z" fill="#7fcac9"/><path d="m49 35h11v2h-11z" fill="#2d75bb"/></g></svg>