<svg width="365" height="207" viewBox="0 0 365 207" fill="none" xmlns="http://www.w3.org/2000/svg">
<defs>
    <style>
        @import url('https://fonts.googleapis.com/css2?family=Josefin+Sans');
    </style>
</defs>
<path id="population-curve" d="M362.999 156.891C289.564 -8.71104 135.9 -8.71103 55.6728 156.891" stroke="white" stroke-width="4" stroke-linecap="round"/>
<text id="x-label" fill="white" xml:space="preserve" style="white-space: pre" font-family="Josefin Sans" font-size="15" font-style="italic" letter-spacing="0em"><tspan x="157.101" y="198.25">Population Size</tspan></text>
<g id="harvest">
<line x1="55.6733" y1="19.1741" x2="363" y2="19.174" stroke="white" stroke-width="4"/>
<text id="harvest-rate" fill="white" xml:space="preserve" style="white-space: pre" font-family="Josefin Sans" font-size="15" font-style="italic" letter-spacing="0em"><tspan x="55.6733" y="11.7637">H = 2</tspan></text>
</g>
<g id="pointer">
<text fill="white" xml:space="preserve" style="white-space: pre" font-family="Josefin Sans" font-size="15" font-style="italic" letter-spacing="0em"><tspan x="115.927" y="118.789">N = 30&#10;</tspan><tspan x="102.245" y="133.789">dN/dt = 1.5&#10;</tspan><tspan x="140.668" y="148.789">&#10;</tspan></text>
<path id="arrow" d="M140.288 65.3523C139.703 64.7665 138.753 64.7665 138.167 65.3523L128.621 74.8982C128.035 75.484 128.035 76.4338 128.621 77.0196C129.207 77.6053 130.157 77.6053 130.742 77.0196L139.228 68.5343L147.713 77.0196C148.299 77.6053 149.249 77.6053 149.834 77.0196C150.42 76.4338 150.42 75.484 149.834 74.8982L140.288 65.3523ZM140.728 98.4915L140.728 66.413L137.728 66.413L137.728 98.4915L140.728 98.4915Z" fill="white"/>
<ellipse id="dot" cx="139.228" cy="55.7201" rx="7.68317" ry="6.5802" fill="white"/>
</g>
<text id="carrying-capacity" fill="white" xml:space="preserve" style="white-space: pre" font-family="Josefin Sans" font-size="15" font-style="italic" letter-spacing="0em"><tspan x="308.61" y="174.624">K = 100</tspan></text>
<text id="origin" fill="white" xml:space="preserve" style="white-space: pre" font-family="Josefin Sans" font-size="15" font-style="italic" letter-spacing="0em"><tspan x="55.6733" y="173.801">0</tspan></text>
<text id="y-label" transform="translate(-0.000183105 173) rotate(-90)" fill="white" xml:space="preserve" style="white-space: pre" font-family="Josefin Sans" font-size="15" font-style="italic" letter-spacing="0em"><tspan x="5.11133" y="14.75">Population Growth Rate</tspan></text>
</svg>

